<mxfile host="app.diagrams.net" modified="2022-11-19T23:35:29.452Z" agent="5.0 (Windows NT 10.0; Win64; x64) AppleWebKit/537.36 (KHTML, like Gecko) Chrome/107.0.0.0 Safari/537.36    " etag="uMvUJ9bZ7jZDopC8mVbX" version="20.5.3" type="github">
  <diagram id="pDKX-mvvYHeGQEmnliqE" name="Page-1">
    <mxGraphModel dx="2267" dy="1291" grid="1" gridSize="10" guides="1" tooltips="1" connect="1" arrows="1" fold="1" page="1" pageScale="1" pageWidth="827" pageHeight="1169" math="0" shadow="0">
      <root>
        <mxCell id="0" />
        <mxCell id="1" parent="0" />
        <mxCell id="3HqTh5FVwiPqjcQrwxl_-23" value="ACTION: HIT" style="whiteSpace=wrap;html=1;aspect=fixed;rounded=1;shadow=0;sketch=1;" vertex="1" parent="1">
          <mxGeometry x="144" y="504" width="160" height="160" as="geometry" />
        </mxCell>
        <mxCell id="3HqTh5FVwiPqjcQrwxl_-24" value="PERMANENT 2" style="whiteSpace=wrap;html=1;aspect=fixed;rounded=1;shadow=0;sketch=1;" vertex="1" parent="1">
          <mxGeometry x="524" y="504" width="160" height="160" as="geometry" />
        </mxCell>
        <mxCell id="3HqTh5FVwiPqjcQrwxl_-25" value="ACTION: HIT" style="whiteSpace=wrap;html=1;aspect=fixed;rounded=1;shadow=0;sketch=1;" vertex="1" parent="1">
          <mxGeometry x="334" y="314" width="160" height="160" as="geometry" />
        </mxCell>
        <mxCell id="3HqTh5FVwiPqjcQrwxl_-26" value="PERMANENT 3" style="whiteSpace=wrap;html=1;aspect=fixed;rounded=1;shadow=0;sketch=1;" vertex="1" parent="1">
          <mxGeometry x="334" y="694" width="160" height="160" as="geometry" />
        </mxCell>
        <mxCell id="3HqTh5FVwiPqjcQrwxl_-27" value="PASSIVE 1" style="whiteSpace=wrap;html=1;aspect=fixed;rounded=1;shadow=0;sketch=1;" vertex="1" parent="1">
          <mxGeometry x="144" y="314" width="160" height="160" as="geometry" />
        </mxCell>
        <mxCell id="3HqTh5FVwiPqjcQrwxl_-28" value="PASSIVE 2" style="whiteSpace=wrap;html=1;aspect=fixed;rounded=1;shadow=0;sketch=1;" vertex="1" parent="1">
          <mxGeometry x="524" y="314" width="160" height="160" as="geometry" />
        </mxCell>
        <mxCell id="3HqTh5FVwiPqjcQrwxl_-29" value="PASSIVE 4" style="whiteSpace=wrap;html=1;aspect=fixed;rounded=1;shadow=0;sketch=1;" vertex="1" parent="1">
          <mxGeometry x="144" y="694" width="160" height="160" as="geometry" />
        </mxCell>
        <mxCell id="3HqTh5FVwiPqjcQrwxl_-30" value="PASSIVE 3" style="whiteSpace=wrap;html=1;aspect=fixed;rounded=1;shadow=0;sketch=1;" vertex="1" parent="1">
          <mxGeometry x="524" y="694" width="160" height="160" as="geometry" />
        </mxCell>
        <mxCell id="3HqTh5FVwiPqjcQrwxl_-32" value="PERMANENT 1" style="whiteSpace=wrap;html=1;aspect=fixed;rounded=1;shadow=0;sketch=1;" vertex="1" parent="1">
          <mxGeometry x="334" y="884" width="160" height="160" as="geometry" />
        </mxCell>
        <mxCell id="3HqTh5FVwiPqjcQrwxl_-33" value="MUTATION 1" style="whiteSpace=wrap;html=1;aspect=fixed;rounded=1;shadow=0;sketch=1;" vertex="1" parent="1">
          <mxGeometry x="144" y="884" width="160" height="160" as="geometry" />
        </mxCell>
        <mxCell id="3HqTh5FVwiPqjcQrwxl_-34" value="ZONE 2" style="whiteSpace=wrap;html=1;aspect=fixed;rounded=1;shadow=0;sketch=1;" vertex="1" parent="1">
          <mxGeometry x="524" y="884" width="160" height="160" as="geometry" />
        </mxCell>
        <mxCell id="3HqTh5FVwiPqjcQrwxl_-35" value="ACTION: PORTAL" style="whiteSpace=wrap;html=1;aspect=fixed;rounded=1;shadow=0;sketch=1;" vertex="1" parent="1">
          <mxGeometry x="334" y="124" width="160" height="160" as="geometry" />
        </mxCell>
        <mxCell id="3HqTh5FVwiPqjcQrwxl_-36" value="ZONE 1" style="whiteSpace=wrap;html=1;aspect=fixed;rounded=1;shadow=0;sketch=1;" vertex="1" parent="1">
          <mxGeometry x="144" y="124" width="160" height="160" as="geometry" />
        </mxCell>
        <mxCell id="3HqTh5FVwiPqjcQrwxl_-37" value="MUTATION 2" style="whiteSpace=wrap;html=1;aspect=fixed;rounded=1;shadow=0;sketch=1;" vertex="1" parent="1">
          <mxGeometry x="524" y="124" width="160" height="160" as="geometry" />
        </mxCell>
        <mxCell id="3HqTh5FVwiPqjcQrwxl_-44" value="" style="group;strokeColor=none;strokeWidth=3;" vertex="1" connectable="0" parent="1">
          <mxGeometry x="334" y="504" width="160" height="160" as="geometry" />
        </mxCell>
        <mxCell id="3HqTh5FVwiPqjcQrwxl_-45" value="" style="group" vertex="1" connectable="0" parent="3HqTh5FVwiPqjcQrwxl_-44">
          <mxGeometry width="160" height="160" as="geometry" />
        </mxCell>
        <mxCell id="3HqTh5FVwiPqjcQrwxl_-46" value="" style="whiteSpace=wrap;html=1;aspect=fixed;rounded=1;strokeWidth=2;fillColor=#0099CC;strokeColor=none;" vertex="1" parent="3HqTh5FVwiPqjcQrwxl_-45">
          <mxGeometry width="80" height="80" as="geometry" />
        </mxCell>
        <mxCell id="3HqTh5FVwiPqjcQrwxl_-47" value="" style="whiteSpace=wrap;html=1;aspect=fixed;rounded=1;strokeWidth=2;fillColor=#FF6600;strokeColor=none;" vertex="1" parent="3HqTh5FVwiPqjcQrwxl_-45">
          <mxGeometry x="80" width="80" height="80" as="geometry" />
        </mxCell>
        <mxCell id="3HqTh5FVwiPqjcQrwxl_-48" value="" style="whiteSpace=wrap;html=1;aspect=fixed;rounded=1;strokeWidth=2;fillColor=#757171;strokeColor=none;" vertex="1" parent="3HqTh5FVwiPqjcQrwxl_-45">
          <mxGeometry y="80" width="80" height="80" as="geometry" />
        </mxCell>
        <mxCell id="3HqTh5FVwiPqjcQrwxl_-49" value="" style="whiteSpace=wrap;html=1;aspect=fixed;rounded=1;strokeWidth=2;fillColor=#9966FF;strokeColor=none;" vertex="1" parent="3HqTh5FVwiPqjcQrwxl_-45">
          <mxGeometry x="80" y="80" width="80" height="80" as="geometry" />
        </mxCell>
        <mxCell id="3HqTh5FVwiPqjcQrwxl_-52" value="" style="whiteSpace=wrap;html=1;aspect=fixed;rounded=1;fillColor=#9966FF;strokeColor=none;" vertex="1" parent="1">
          <mxGeometry x="714" y="924" width="80" height="80" as="geometry" />
        </mxCell>
        <mxCell id="3HqTh5FVwiPqjcQrwxl_-53" value="" style="whiteSpace=wrap;html=1;aspect=fixed;rounded=1;fillColor=#0099CC;strokeColor=none;" vertex="1" parent="1">
          <mxGeometry x="34" y="164" width="80" height="80" as="geometry" />
        </mxCell>
        <mxCell id="3HqTh5FVwiPqjcQrwxl_-54" value="" style="whiteSpace=wrap;html=1;aspect=fixed;rounded=1;fillColor=#757171;strokeColor=none;" vertex="1" parent="1">
          <mxGeometry x="34" y="924" width="80" height="80" as="geometry" />
        </mxCell>
        <mxCell id="3HqTh5FVwiPqjcQrwxl_-51" value="" style="whiteSpace=wrap;html=1;aspect=fixed;rounded=1;fillColor=#FF6600;strokeColor=none;" vertex="1" parent="1">
          <mxGeometry x="714" y="164" width="80" height="80" as="geometry" />
        </mxCell>
      </root>
    </mxGraphModel>
  </diagram>
</mxfile>
